<?xml version="1.0" standalone="no"?>
<!DOCTYPE svg PUBLIC "-//W3C//DTD SVG 20010904//EN"
 "http://www.w3.org/TR/2001/REC-SVG-20010904/DTD/svg10.dtd">
<svg version="1.0" xmlns="http://www.w3.org/2000/svg"
 width="100px" height="39px" viewBox="0 0 664.000000 87.000000"
 preserveAspectRatio="xMidYMid meet">

<g transform="translate(0.000000,100.000000) scale(0.100000,-0.100000)"
fill="#000000" stroke="none">
<path d="M2500 890 l0 -740 50 0 50 0 0 740 0 740 -50 0 -50 0 0 -740z"/>
<path d="M6370 890 l0 -740 55 0 55 0 0 740 0 740 -55 0 -55 0 0 -740z"/>
<path d="M691 1489 c-177 -30 -358 -162 -444 -327 -58 -111 -81 -207 -81 -347
0 -209 59 -360 194 -496 117 -118 244 -174 415 -186 158 -10 290 22 405 98
l60 41 0 76 0 76 -42 -41 c-88 -84 -190 -128 -325 -139 -319 -27 -572 199
-590 526 -8 130 10 223 59 323 156 310 548 392 836 175 l62 -47 0 69 0 68 -60
41 c-132 88 -307 120 -489 90z"/>
<path d="M5071 1464 c-12 -15 -21 -34 -21 -44 0 -10 9 -29 21 -44 41 -52 122
-23 122 44 0 67 -81 96 -122 44z"/>
<path d="M4640 1180 l0 -149 -67 -3 -68 -3 -3 -47 -3 -48 70 0 71 0 0 -390 0
-390 55 0 55 0 0 390 0 390 71 0 70 0 -3 48 -3 47 -67 3 -68 3 0 149 0 150
-55 0 -55 0 0 -150z"/>
<path d="M1806 1039 c-207 -31 -345 -205 -348 -439 -2 -133 32 -241 104 -333
111 -141 338 -178 523 -86 47 24 132 100 162 146 16 24 16 26 -8 44 -41 32
-59 33 -77 7 -27 -40 -91 -97 -135 -120 -31 -16 -65 -23 -134 -26 -81 -4 -97
-2 -145 20 -29 14 -68 40 -87 59 -41 41 -87 137 -96 202 l-6 47 360 0 361 0 0
58 c0 102 -38 214 -102 294 -76 97 -227 149 -372 127z m199 -114 c82 -40 146
-130 160 -228 l7 -47 -306 0 -306 0 6 28 c30 135 95 219 201 258 54 20 187 14
238 -11z"/>
<path d="M3170 1039 c-80 -13 -170 -61 -224 -119 -168 -180 -163 -504 11 -678
69 -70 142 -102 241 -109 151 -11 271 36 372 143 33 36 59 71 58 76 -2 6 -20
20 -40 32 l-36 21 -23 -30 c-77 -101 -149 -138 -272 -143 -83 -4 -93 -2 -153
28 -47 23 -75 45 -100 78 -34 47 -74 153 -74 198 l0 24 358 2 357 3 3 34 c9
90 -42 246 -102 313 -92 103 -234 151 -376 127z m195 -113 c89 -41 153 -129
170 -233 l7 -43 -307 0 -306 0 7 38 c18 103 79 188 166 231 81 41 186 44 263
7z"/>
<path d="M5703 1040 c-64 -9 -126 -32 -200 -76 l-43 -25 26 -39 26 -39 46 30
c64 41 132 59 219 59 163 0 222 -64 223 -237 0 -51 -2 -93 -4 -93 -2 0 -28 11
-57 25 -160 73 -374 45 -468 -61 -45 -51 -61 -100 -61 -186 0 -166 137 -279
323 -265 91 6 187 54 234 115 l33 44 0 -71 0 -71 50 0 50 0 0 348 0 348 -26
53 c-55 110 -196 164 -371 141z m232 -471 c59 -24 60 -25 63 -67 10 -142 -98
-268 -241 -279 -81 -7 -139 10 -187 54 -85 76 -76 227 18 285 53 32 81 38 187
34 77 -2 114 -9 160 -27z"/>
<path d="M3977 1023 c-61 -21 -123 -82 -138 -137 -15 -55 -5 -138 20 -180 33
-53 83 -84 224 -142 105 -42 140 -62 170 -93 33 -36 37 -46 37 -91 0 -102 -56
-153 -169 -153 -106 0 -187 47 -232 136 l-19 37 -40 -20 c-46 -23 -47 -27 -21
-78 69 -134 248 -204 405 -158 144 42 226 203 167 331 -34 75 -100 118 -296
194 -54 20 -93 43 -115 67 -31 31 -35 41 -35 89 0 84 52 125 157 125 71 -1
124 -26 178 -87 l45 -50 38 24 c20 13 37 27 37 31 0 4 -11 24 -25 44 -31 46
-103 96 -163 114 -60 18 -165 17 -225 -3z"/>
<path d="M5077 1024 c-4 -4 -7 -202 -7 -441 l0 -433 55 0 55 0 -2 438 -3 437
-45 3 c-25 2 -49 0 -53 -4z"/>
</g>
</svg>
